<svg version="1.1" id="Layer_1" xmlns="http://www.w3.org/2000/svg" x="0" y="0" viewBox="0 0 392.4 245.6" xml:space="preserve"><style>.st0{fill:#ff6fff}</style><path class="st0" d="M41.3 126.1c0-.2 19.4.2 21.2.3 6.7.5 13.3 1.7 19.5 4.7 10.3 4.7 18.8 13.1 23.6 23.4 10.2 20.9 8 49.2-8.6 66.2-17.8 18.4-45.2 15.2-68.6 15-4.7 0-13.9 1.2-15.2-4.8-1.1-4.5 1.6-10.8 1.7-15.5.3-13.9-.2-28 0-42v-21.2c0-6.4-1.2-12-2.2-18.3-.8-5.9 3.4-7.2 8.4-7.7 6.9-.5 13.6-.1 20.2-.1zm4.7 16.2c-8.8.3-12.7 2.7-13.3 11.7-.8 8.9-.3 18-.3 26.9 0 9.8-.9 20.3.5 30 1.6 9.1 9.5 8.3 17.2 8.4 15.6.2 32.7-2.8 39.4-18.9 5.6-13.8 4.7-33.1-4.5-45.2-9.4-11.8-25.1-13.2-39-12.9zm90.3-17c3.3.5 8 0 10 3.3 2.2 3.4-.3 8.4-.8 12.2-1.1 9.8-.2 20.3-.2 30.3 0 17.8-.9 36.1.9 53.9.3 3.3.9 6.9-2.2 8.8-3 1.9-7.8 1.6-11.1.9-8.1-1.2-6.1-8.6-5.5-15 1.7-18.4.3-37.7.3-56.2 0-8.6.2-17.2-1.1-25.8-.5-3-2-7.2.3-9.8 2.3-2.5 6.6-2.3 9.4-2.6zm76.2-1.3c22.3 0 45.5 9.7 43.6 35.8-2 27.2-32.7 28.4-53.3 32.7-7.5 1.7-18.3 5.9-16.6 15.8 1.6 9.2 12.5 11.7 20.5 12.3 9.7.8 20.3 0 28.3-6.1 3-2.3 6.1-5.5 10-3.1 3.3 1.9 6.4 6.7 7 10.5.9 5.6-4.8 7.2-9.1 8.9-5.2 2.2-10.3 4.2-15.6 5.5-10.2 2-21.6 1.7-31.6-.3-19.2-4.1-33.4-19.8-26.4-40 7-20.5 32.3-20.9 50-24.8 8.8-2 20.3-6.6 17.7-17.8-2.2-9.8-13.9-12-22.5-12.3-9.1-.5-19.5.6-27.3 5.9-3 2-5.3 6.2-9.2 6.6s-6.6-3.3-8.6-6.2c-6.2-9.5 5.5-13.4 12.7-17 9.3-5 19.8-6.8 30.4-6.4zm75.2 2.1c3.8 0 10.3-.5 12.3 3.4 1.9 3.3-1.1 9.2-1.4 13-.6 5.5-.6 11.4-.5 17 .2 3.6.3 8.3 3 10.9 3 3 7.8 2.7 11.7 2.7h14.7c6.1 0 12 .2 18 0 4.4-.2 8.8-.9 10.6-5.3 2.2-4.8 1.2-11.2 1.4-16.4.2-6.1-.8-11.7-1.4-17.7-.6-4.8 1.7-6.6 6.2-7.3 3.9-.6 10.9-1.1 14.2 1.6 3.3 2.8 1.1 7.2.5 10.8-.9 5.8-.5 11.7-.5 17.7v33.8c0 10.6-.9 21.9.3 32.5.5 3.8 2.5 8.8-.9 11.6-3.3 2.3-9.4 1.9-13 1.4-4.5-.6-6.7-1.9-6.7-6.6.2-4.7 1.2-9.4 1.2-14.1.2-6.9 2.5-19.5-5.5-22.8-4.7-1.9-10.8-1.1-15.5-1.1h-16.2c-7.8 0-20.3-1.7-21.6 8.8-.6 5-.3 10.5-.3 15.5.2 4.7 1.4 9.1 1.7 13.6.8 8.8-15 8.9-20.2 5.5-3.6-2.5-2-7.2-1.6-10.8.8-5 .5-10.3.5-15.3v-33.6c0-10.8.8-21.9-.3-32.7-.3-3.4-3.1-8.9-1.4-12.3 1.9-3.8 7.4-3.7 10.7-3.8zM15.4 113.6c-4.1-3.5-.2-9.9.3-14 1.8-12.8.6-26.5.6-39.4V37.3c-.2-3.9 0-7.8-.5-11.7-.3-3-1.5-5.6-2.1-8.6-1.5-7.4 6.2-7.1 11.4-7.1 1.8 0 20.9-.2 20.9 0 12.5 0 26.9-2.1 38.7 3.2 9.8 4.2 15.6 12.5 17.6 22.9 2.1 11.3.2 24.7-7.7 33.4-7.8 8.6-19.1 10.8-30.2 11.1-6.3.2-12.6 0-19 .3-4.8.3-9.5.9-11 6.3-1.4 5.1-.5 12.2.9 17.3 1.5 6 1.2 9.9-5.7 10.7-3.6.3-11.2 1-14.2-1.5zM85 42.4c-1.8-15.5-18.4-15.8-30.4-15.8-9.3 0-15 .2-17.1 1.8-4.8 3.6-3.3 11.5-3.3 16.6 0 5.9-1.5 14.6 5.1 17.3 6.2 2.6 15.6.9 22.3.8C74.2 63 86.7 57.2 85 42.4zm23.6 70.7c-2.4-3.2.3-8.4.8-11.7 1.5-11.1.5-22.9.5-34 0-11.7.2-23.3 0-35.1 0-3-.2-5.9-.6-8.9-.5-2.6-1.7-5.3-1.5-7.8.2-4.4 3.3-5.3 7.1-5.6 2.7-.3 32.2 0 32.2-.2 10.4 0 20.9-.5 31.3.1 3.9.2 7.8.6 9.6 4.5 1.5 3.2 1.5 8.6-1.5 10.8-3.2 2.3-8.1.2-11.4-.2-5.4-.5-10.8-.3-16.2-.3h-15.6c-4.1 0-9.9-.6-13.2 2.4-4.7 3.9-4.4 17.5-1.7 22.6 3.8 7.1 18.2 4.7 24.7 4.5 3.9-.2 9.6-2 13.4-.9 4.5 1.5 4.5 6.5 4.2 10.2-.6 10.1-11.4 5.7-18.2 5.6-7.1-.2-21.2-2.6-24.4 5.9-1.5 3.8-.8 8.6-.6 12.5 0 3.9 0 9 3.9 11.1 3.9 2.1 9.6 1.4 13.8 1.4h16.5c5 0 9.8.2 14.7-.5 3.2-.3 8.3-2.1 10.8.6 5 5 .5 13.5-5.4 14.7-9.9 2-21.2.5-31.3.5-10.2 0-20.6.3-30.8 0-3.2.1-8.7.5-11.1-2.2z"/><path class="st0" d="M189.6 77c-4.4-17.6-1.1-37.2 10.8-51.1C211.2 13.1 226.6 8 242.7 8c8.6 0 17.1 1.7 25 5.3 6 2.9 15.5 5.7 10.8 14.1-2 3.2-5 6.6-9 5.4-3.8-.9-6.6-4.7-10.2-6.2-7.2-3.3-16.4-3.5-24.1-2.1-34.3 5.7-39 55.5-11 72.4 6.3 3.8 13.7 5.1 20.9 4.7 9-.5 15.2-3.5 21.7-9.3 3-2.6 6-3.5 9.3-.8 2.7 2.1 5.7 5.9 5.1 9.5-1.2 6.3-12.9 10.8-18.2 12.8-30.6 11.7-65.5-4.7-73.4-36.8zm170.2 35.7c-2.9-2.7-3.6-7.8-5.6-11.1-3.5-6.6-7.8-15.8-13.4-20.8-8-7.1-15.2 7.5-19.3 12.8-2.6 3.5-5.4 6.8-7.2 10.7-1.5 3.3-1.7 7.1-5.1 9.2-4.4 2.6-18.1 3.3-20.8-2.1-2-3.8.2-10.4.3-14.4.2-5.7 0-11.3 0-16.8V45.7c0-5.4.2-10.8 0-16.2-.2-4.7-2.4-11.3-1.1-15.6 1.2-4.2 7.2-4.7 10.8-4.2 4.7.5 7.8 2.1 7.5 7.1-.8 10.4-.8 20.9-.6 31.3v14.6c0 4.5-.8 9.8.8 14.3 3.2 10.1 13.2-6.3 15.8-9.8 6-8.1 12-16.4 17.9-24.7 5.3-7.2 11.3-14.1 15.3-22 1.5-3 2.4-6.9 5.3-9 3.5-2.4 9.6-2.4 13.5-1.4 9.8 2.7-1.2 14-4.2 18.2-5.4 8-11.4 15.6-16.2 23.9-5.1 9 .8 15.9 5.6 23.8 5.1 8.3 10.1 16.7 15.3 24.7 2 2.9 6 7.1 4.8 10.7-1.1 3.6-6.3 3.3-9.3 3.5-3.1 0-7.5.2-10.1-2.2z"/></svg>